<svg viewBox="0 0 900 600" xmlns="http://www.w3.org/2000/svg" role="img" aria-label="Interior Arc Admin Portal illustration: gallery, upload and content-layout icons">
  <defs>
    <linearGradient id="bgGrad" x1="0" y1="0" x2="900" y2="600" gradientUnits="userSpaceOnUse">
      <stop offset="0" stop-color="#2563eb"/>
      <stop offset="1" stop-color="#7c3aed"/>
    </linearGradient>
  </defs>

  <rect width="900" height="600" fill="url(#bgGrad)"/>
  <circle cx="80" cy="530" r="150" fill="#ffffff" opacity="0.05"/>
  <circle cx="850" cy="60" r="120" fill="#ffffff" opacity="0.07"/>
  <circle cx="800" cy="520" r="60" fill="#ffffff" opacity="0.06"/>

  <!-- browser chrome window -->
  <rect x="70" y="70" width="760" height="460" rx="20" fill="#0b1220" opacity="0.15"/>
  <rect x="60" y="60" width="760" height="460" rx="20" fill="#ffffff"/>
  <path d="M60 80a20 20 0 0 1 20-20h720a20 20 0 0 1 20 20v20H60V80z" fill="#eef2ff"/>
  <circle cx="92" cy="80" r="6" fill="#fca5a5"/>
  <circle cx="112" cy="80" r="6" fill="#fde68a"/>
  <circle cx="132" cy="80" r="6" fill="#86efac"/>

  <!-- feature tiles -->
  <g>
    <rect x="100" y="140" width="130" height="130" rx="22" fill="#2563eb"/><g transform="translate(129.00,169.00) scale(3)" fill="none" stroke="#ffffff" stroke-width="2" stroke-linecap="round" stroke-linejoin="round"><rect x="3" y="3" width="18" height="18" rx="2"/><circle cx="8.5" cy="8.5" r="1.6"/><path d="M21 15l-5-5L5 21"/></g>
    <rect x="260" y="140" width="130" height="130" rx="22" fill="#7c3aed"/><g transform="translate(289.00,169.00) scale(3)" fill="none" stroke="#ffffff" stroke-width="2" stroke-linecap="round" stroke-linejoin="round"><path d="M12 3v12"/><path d="M7 8l5-5 5 5"/><path d="M4 21h16"/></g>
    <rect x="100" y="300" width="130" height="130" rx="22" fill="#06b6d4"/><g transform="translate(129.00,329.00) scale(3)" fill="none" stroke="#ffffff" stroke-width="2" stroke-linecap="round" stroke-linejoin="round"><rect x="3" y="3" width="8" height="8" rx="1.5"/><rect x="13" y="3" width="8" height="8" rx="1.5"/><rect x="3" y="13" width="8" height="8" rx="1.5"/><rect x="13" y="13" width="8" height="8" rx="1.5"/></g>
    <rect x="260" y="300" width="130" height="130" rx="22" fill="#d97706"/><g transform="translate(289.00,329.00) scale(3)" fill="none" stroke="#ffffff" stroke-width="2" stroke-linecap="round" stroke-linejoin="round"><path d="M4 20l1-4L16 5l3 3L8 19l-4 1z"/><line x1="14.5" y1="6.5" x2="17.5" y2="9.5"/></g>
  </g>

  <!-- centerpiece -->
  <circle cx="625" cy="310" r="150" fill="#eef2ff"/>
  <circle cx="625" cy="310" r="168" fill="none" stroke="#c7d2fe" stroke-width="2" stroke-dasharray="3 10"/>
  <g transform="translate(517.00,202.00) scale(9)" fill="none" stroke="url(#bgGrad)" stroke-width="1.3" stroke-linecap="round" stroke-linejoin="round"><rect x="3" y="3" width="18" height="18" rx="2"/><circle cx="8.5" cy="8.5" r="1.6"/><path d="M21 15l-5-5L5 21"/></g>
</svg>
