<svg viewBox="0 0 900 600" xmlns="http://www.w3.org/2000/svg" role="img" aria-label="HRMS product illustration: employee, attendance, payroll and performance icons">
  <defs>
    <linearGradient id="bgGrad" x1="0" y1="0" x2="900" y2="600" gradientUnits="userSpaceOnUse">
      <stop offset="0" stop-color="#2563eb"/>
      <stop offset="1" stop-color="#7c3aed"/>
    </linearGradient>
  </defs>

  <rect width="900" height="600" fill="url(#bgGrad)"/>
  <circle cx="80" cy="530" r="150" fill="#ffffff" opacity="0.05"/>
  <circle cx="850" cy="60" r="120" fill="#ffffff" opacity="0.07"/>
  <circle cx="800" cy="520" r="60" fill="#ffffff" opacity="0.06"/>

  <!-- browser chrome window -->
  <rect x="70" y="70" width="760" height="460" rx="20" fill="#0b1220" opacity="0.15"/>
  <rect x="60" y="60" width="760" height="460" rx="20" fill="#ffffff"/>
  <path d="M60 80a20 20 0 0 1 20-20h720a20 20 0 0 1 20 20v20H60V80z" fill="#eef2ff"/>
  <circle cx="92" cy="80" r="6" fill="#fca5a5"/>
  <circle cx="112" cy="80" r="6" fill="#fde68a"/>
  <circle cx="132" cy="80" r="6" fill="#86efac"/>

  <!-- feature tiles -->
  <g>
    <rect x="100" y="140" width="130" height="130" rx="22" fill="#2563eb"/><g transform="translate(129.00,169.00) scale(3)" fill="none" stroke="#ffffff" stroke-width="2" stroke-linecap="round" stroke-linejoin="round"><rect x="3" y="5" width="18" height="16" rx="2"/><line x1="3" y1="10" x2="21" y2="10"/><line x1="8" y1="3" x2="8" y2="7"/><line x1="16" y1="3" x2="16" y2="7"/><path d="M9 15l2 2 4-4"/></g>
    <rect x="260" y="140" width="130" height="130" rx="22" fill="#7c3aed"/><g transform="translate(289.00,169.00) scale(3)" fill="none" stroke="#ffffff" stroke-width="2" stroke-linecap="round" stroke-linejoin="round"><rect x="2" y="7" width="20" height="10" rx="2"/><circle cx="12" cy="12" r="2.5"/><line x1="6" y1="10" x2="6" y2="14"/><line x1="18" y1="10" x2="18" y2="14"/></g>
    <rect x="100" y="300" width="130" height="130" rx="22" fill="#06b6d4"/><g transform="translate(129.00,329.00) scale(3)" fill="none" stroke="#ffffff" stroke-width="2" stroke-linecap="round" stroke-linejoin="round"><line x1="6" y1="20" x2="6" y2="12"/><line x1="12" y1="20" x2="12" y2="7"/><line x1="18" y1="20" x2="18" y2="15"/><line x1="3" y1="20" x2="21" y2="20"/></g>
    <rect x="260" y="300" width="130" height="130" rx="22" fill="#d97706"/><g transform="translate(289.00,329.00) scale(3)" fill="none" stroke="#ffffff" stroke-width="2" stroke-linecap="round" stroke-linejoin="round"><rect x="3" y="7" width="18" height="13" rx="2"/><path d="M8 7V5a2 2 0 0 1 2-2h4a2 2 0 0 1 2 2v2"/><line x1="3" y1="13" x2="21" y2="13"/></g>
  </g>

  <!-- centerpiece -->
  <circle cx="625" cy="310" r="150" fill="#eef2ff"/>
  <circle cx="625" cy="310" r="168" fill="none" stroke="#c7d2fe" stroke-width="2" stroke-dasharray="3 10"/>
  <g transform="translate(517.00,202.00) scale(9)" fill="none" stroke="url(#bgGrad)" stroke-width="1.3" stroke-linecap="round" stroke-linejoin="round"><circle cx="9" cy="8" r="3.5"/><path d="M2.5 21v-1a6.5 6.5 0 0 1 13 0v1"/><circle cx="18" cy="9" r="2.7"/><path d="M15.3 14.3A5 5 0 0 1 21.5 19v1"/></g>
</svg>
